<svg width="40" height="15" viewBox="0 0 40 15" fill="none" xmlns="http://www.w3.org/2000/svg">
<mask id="mask0_615_18" style="mask-type:alpha" maskUnits="userSpaceOnUse" x="0" y="0" width="40" height="15">
<rect x="0.734863" y="0.699707" width="38.4905" height="13.7266" fill="#D9D9D9"></rect>
</mask>
<g mask="url(#mask0_615_18)">
<path d="M1.16371 11.5417H8.23238V10.9114H3.05428C1.50807 10.8292 0.734863 10.0518 0.734863 8.57905V7.27964C0.734863 5.54725 1.61191 4.68091 3.36611 4.68091H10.6038V7.54608H3.75595V8.15679H9.29128C10.7119 8.16975 11.4309 8.96025 11.4484 10.5282V11.8276C11.4441 13.5601 10.725 14.4263 9.29128 14.4263H1.16371V11.5417Z" fill="#323232"></path>
<rect x="12.1495" y="4.68091" width="3.61234" height="9.7454" fill="#323232"></rect>
<path d="M28.5057 4.68091H36.7049C38.3724 4.68091 39.2127 5.33052 39.2257 6.62993V8.18272C39.2213 8.76316 39.0524 9.21579 38.719 9.54059C39.0438 9.88279 39.2019 10.3007 39.1932 10.7945V14.4263H35.8343V10.827H32.014V14.4263H28.5057V4.68091ZM32.0401 8.17624H35.8343V7.48753H32.0401V8.17624Z" fill="#323232"></path>
<path fill-rule="evenodd" clip-rule="evenodd" d="M16.3981 13.4868H19.7742L22.1469 8.40649L24.4266 13.4869L27.8264 13.4777L22.0475 0.699707L16.3981 13.4868Z" fill="#F66A01"></path>
</g>
</svg>
